<?xml version="1.0" standalone="no"?>
<!DOCTYPE svg PUBLIC "-//W3C//DTD SVG 20010904//EN"
 "http://www.w3.org/TR/2001/REC-SVG-20010904/DTD/svg10.dtd">
<svg version="1.0" xmlns="http://www.w3.org/2000/svg"
 width="564.000000pt" height="567.000000pt" viewBox="0 0 564.000000 567.000000"
 preserveAspectRatio="xMidYMid meet">

<g transform="translate(0.000000,567.000000) scale(0.100000,-0.100000)"
fill="#000000" stroke="none">
<path d="M0 2835 l0 -2835 2820 0 2820 0 0 2835 0 2835 -2820 0 -2820 0 0
-2835z m3144 1616 c209 -45 410 -131 586 -248 109 -73 280 -217 280 -236 0 -6
-24 11 -52 39 -227 218 -504 365 -825 436 -86 20 -127 22 -333 22 -206 0 -247
-2 -333 -22 -150 -33 -300 -87 -426 -152 -123 -64 -164 -75 -58 -16 177 99
335 152 597 200 14 2 124 3 245 2 182 -2 237 -7 319 -25z m-1945 -1183 c-5
-18 -19 -76 -31 -128 -26 -120 -36 -416 -18 -541 19 -141 20 -169 3 -94 -13
54 -17 124 -17 305 -1 211 1 246 22 339 24 105 38 151 46 151 3 0 0 -15 -5
-32z m762 -106 c3 -4 32 -69 64 -144 32 -76 61 -138 64 -138 3 0 33 63 66 141
33 77 67 144 75 148 17 8 58 7 67 -2 3 -4 -35 -95 -84 -204 l-89 -198 -35 -3
-35 -3 -91 203 c-76 171 -88 204 -74 209 18 7 63 1 72 -9z m583 -123 c34 -27
56 -70 56 -109 l0 -30 -95 0 c-88 0 -95 -1 -95 -20 0 -52 78 -77 139 -46 26
14 28 13 38 -14 10 -27 9 -30 -22 -44 -73 -35 -179 -12 -215 46 -24 40 -27
126 -5 169 35 66 143 92 199 48z m299 1 c30 -24 37 -25 37 -5 0 11 11 15 40
15 l40 0 0 -156 c0 -122 -3 -163 -16 -190 -30 -62 -135 -91 -224 -61 -19 7
-35 18 -34 25 1 6 2 21 3 31 1 19 3 19 46 4 50 -17 106 -11 125 12 13 15 27
95 17 95 -4 0 -21 -9 -39 -20 -42 -25 -84 -25 -126 0 -85 52 -79 212 9 257 36
19 93 16 122 -7z m370 0 c30 -24 37 -25 37 -5 0 11 11 15 40 15 l40 0 0 -145
0 -145 -40 0 c-33 0 -40 3 -40 20 0 11 -4 20 -10 20 -5 0 -10 -4 -10 -9 0 -17
-60 -34 -101 -28 -49 6 -67 21 -90 72 -23 50 -24 93 -2 146 29 73 120 103 176
59z m428 10 c37 -21 49 -63 49 -180 l0 -110 -40 0 -40 0 0 93 c0 54 -6 102
-13 117 -17 34 -59 38 -86 9 -18 -20 -21 -35 -21 -121 l0 -98 -40 0 -40 0 0
108 c0 59 -3 124 -6 145 l-7 37 42 0 c30 0 41 -4 41 -15 0 -20 7 -19 37 5 28
22 91 27 124 10z m-1618 -597 c-27 -4 -33 -9 -33 -29 0 -20 5 -24 33 -26 l32
-1 -32 -4 c-27 -4 -33 -9 -33 -28 0 -19 6 -24 33 -28 28 -3 26 -4 -10 -5 l-43
-2 0 65 0 65 43 -2 c36 -1 38 -2 10 -5z m111 -19 l17 -25 21 26 c11 14 23 24
25 21 3 -3 -4 -17 -16 -31 l-20 -27 25 -34 c15 -19 22 -34 16 -34 -5 0 -17 11
-26 25 -9 14 -20 25 -25 25 -4 0 -14 -11 -21 -25 -7 -14 -18 -25 -23 -25 -5 0
-2 10 7 23 28 38 29 45 6 77 -12 16 -17 30 -12 30 5 0 17 -12 26 -26z m214 -3
c4 -27 -12 -41 -50 -41 -23 0 -27 -5 -31 -32 -2 -18 -5 -2 -5 35 l-2 68 43 -3
c36 -3 43 -7 45 -27z m143 13 c10 -12 10 -20 1 -35 -9 -14 -10 -25 -2 -40 6
-11 10 -25 7 -32 -2 -6 -10 2 -18 18 -8 18 -23 31 -37 33 -19 3 -22 -1 -22
-27 0 -17 -4 -31 -10 -31 -6 0 -10 28 -10 65 l0 65 39 0 c23 0 44 -6 52 -16z
m117 9 c-33 -4 -38 -8 -38 -29 0 -21 5 -24 38 -26 l37 -1 -37 -4 c-32 -4 -38
-8 -38 -28 0 -20 6 -24 38 -28 l37 -4 -42 -1 -43 -2 0 65 0 65 43 -2 42 -1
-37 -4z m167 -2 c3 -6 -8 -8 -28 -4 -25 4 -36 1 -40 -10 -7 -18 8 -32 46 -41
20 -5 27 -12 27 -30 0 -13 -7 -27 -16 -30 -23 -9 -62 -7 -68 3 -3 4 11 8 31 7
28 -1 38 3 41 16 2 12 -6 20 -29 25 -41 11 -58 35 -40 57 15 17 66 22 76 7z
m140 0 c3 -6 -8 -8 -28 -4 -26 4 -36 1 -41 -12 -4 -13 3 -20 34 -32 30 -12 40
-22 40 -38 0 -13 -7 -26 -16 -29 -23 -9 -62 -7 -68 3 -3 4 11 8 31 7 48 -1 60
30 16 40 -37 9 -53 22 -53 44 0 10 6 21 13 23 21 9 66 7 72 -2z m188 2 c-27
-4 -33 -9 -33 -29 0 -20 5 -24 33 -26 l32 -1 -32 -4 c-29 -4 -33 -8 -33 -34 0
-16 -4 -29 -10 -29 -6 0 -10 28 -10 65 l0 65 43 -2 c36 -1 38 -2 10 -5z m178
-9 c20 -24 16 -84 -6 -100 -59 -44 -122 28 -85 97 13 24 72 26 91 3z m170 0
c20 -24 16 -84 -6 -100 -59 -44 -122 28 -85 97 13 24 72 26 91 3z m161 -1 c10
-9 18 -30 18 -49 0 -40 -29 -64 -77 -64 l-33 0 0 65 0 65 37 0 c20 0 45 -7 55
-17z m242 -934 c-34 -38 -224 -159 -328 -208 -134 -64 -301 -117 -449 -142
-164 -28 -468 -23 -622 11 -140 30 -397 121 -383 136 3 2 34 -9 69 -25 78 -35
234 -83 349 -108 69 -15 129 -18 315 -17 256 0 329 11 530 78 161 54 378 171
495 267 41 34 51 37 24 8z"/>
<path d="M2460 3002 c-23 -7 -50 -34 -50 -49 0 -9 16 -13 60 -13 63 0 73 10
48 42 -16 19 -38 27 -58 20z"/>
<path d="M2755 2975 c-27 -26 -31 -57 -15 -100 21 -56 109 -52 129 6 31 88
-52 156 -114 94z"/>
<path d="M3138 2990 c-27 -16 -41 -74 -28 -115 18 -55 67 -71 111 -36 19 15
23 28 23 71 0 43 -4 56 -23 71 -25 21 -57 24 -83 9z"/>
<path d="M2270 2425 c0 -24 3 -26 33 -23 24 2 32 8 32 23 0 15 -8 21 -32 23
-30 3 -33 1 -33 -23z"/>
<path d="M2420 2425 c0 -23 4 -26 28 -23 19 2 27 9 27 23 0 14 -8 21 -27 23
-24 3 -28 0 -28 -23z"/>
<path d="M3199 2426 c-25 -53 25 -110 66 -76 18 15 20 71 3 88 -21 21 -57 14
-69 -12z"/>
<path d="M3369 2426 c-25 -53 25 -110 66 -76 18 15 20 71 3 88 -21 21 -57 14
-69 -12z"/>
<path d="M3540 2395 c0 -48 2 -55 20 -55 22 0 60 33 60 53 0 25 -31 57 -56 57
-23 0 -24 -3 -24 -55z"/>
</g>
</svg>
